<?xml version="1.0" encoding="utf-8"?>
<!-- Svg Vector Icons : http://www.onlinewebfonts.com/icon -->
<!DOCTYPE svg PUBLIC "-//W3C//DTD SVG 1.1//EN" "http://www.w3.org/Graphics/SVG/1.1/DTD/svg11.dtd">
<svg version="1.1" xmlns="http://www.w3.org/2000/svg" xmlns:xlink="http://www.w3.org/1999/xlink" x="0px" y="0px" viewBox="0 0 1000 1000" enable-background="new 0 0 1000 1000" xml:space="preserve">
<metadata> Svg Vector Icons : http://www.onlinewebfonts.com/icon </metadata>
<g><g transform="translate(0.000000,511.000000) scale(0.100000,-0.100000)"><path d="M3094.5,4974.4c-33-20.6-570.6-276-1194.8-568.6c-622.1-290.5-1147.4-541.8-1166-556.2c-16.5-16.5-70-28.8-117.4-28.8h-86.5v-298.7v-298.7h152.4h154.5l20.6-107.1c12.4-59.7,253.4-1369.9,537.7-2910.8c284.3-1540.9,521.2-2826.3,527.4-2857.2l12.4-57.7h-414.1h-414.1v-206v-206h875.5h875.5v206v206h-418.2h-416.1l-276,2859.3c-150.4,1571.8-280.2,2906.7-286.3,2966.4l-10.3,107.1h756h754v298.7v298.7l-762.2,4.1l-764.3,6.2l844.6,521.2c463.5,284.3,848.7,519.1,854.9,519.1c6.2,0,12.4-2035.3,12.4-4521.7V-4172h72.1h72.1v111.3v109.2l247.2,232.8c136,125.7,255.4,226.6,265.7,222.5c10.3-2.1,125.7-103,255.4-222.5l236.9-216.3l2.1-117.4l2.1-119.5h72.1h72.1V362.1v4536.1l68-14.4c90.6-18.5,3730.7-1044.4,3741-1054.7c4.1-4.1-813.7-8.2-1816.9-8.2H4608.6v-298.7v-298.7h1884.9h1884.9v-638.6v-638.6h-88.6c-92.7,0-138-26.8-138-82.4c0-18.5,111.3-166.9,247.2-329.6l247.2-296.6v-119.5c0-154.5,30.9-226.6,162.7-374.9c123.6-144.2,136-218.4,51.5-319.3c-96.8-115.4-228.7-68-278.1,100.9c-24.7,82.4-26.8,82.4-127.7,82.4h-103l14.4-84.5c37.1-230.7,171-354.3,383.1-354.3c208,0,350.2,125.7,366.7,325.5c12.4,148.3-18.5,230.7-148.3,379c-103,119.5-113.3,138-119.5,245.1l-6.2,117.4l251.3,304.9c140.1,168.9,253.4,309,253.4,315.2c0,6.2-10.3,28.8-20.6,51.5c-16.5,30.9-45.3,39.1-123.6,39.1h-103l4.1,634.5l6.2,632.4l212.2,6.2l210.1,6.2v296.6v298.7h-214.3c-140.1,0-218.4,8.2-222.5,22.7c-4.1,12.4-1050.6,280.2-2323.7,591.2l-2317.5,570.6l-648.9,4.1C3203.7,5011.5,3152.2,5009.4,3094.5,4974.4z M4299.6,4764.3v-109.2l-245.1-222.5c-136-123.6-253.4-222.5-263.7-220.4c-8.2,2.1-125.6,103-257.5,224.5l-241,218.4v109.2l-2.1,107.1h504.7h504.7V4764.3z M2373.5,4513c-22.7-14.4-263.7-164.8-535.6-331.7c-271.9-166.9-508.8-317.2-527.4-333.7c-24.7-20.6-84.5-26.8-234.8-22.7l-201.9,6.2l749.8,354.3C2342.6,4523.3,2462.1,4576.9,2373.5,4513z M3671.3,4109.2c8.2-12.4-138-160.7-313.1-319.3l-68-59.7v366.7v366.7l185.4-168.9C3578.6,4201.9,3665.1,4117.5,3671.3,4109.2z M4295.5,3925.9l-6.2-185.4l-193.6,177.2l-191.6,179.2l191.6,179.2l193.6,179.2l6.2-173C4297.5,4187.5,4297.5,4028.9,4295.5,3925.9z M7989.1,4047.4c467.6-115.4,854.9-212.2,861.1-216.3c4.1-6.2-72.1-10.3-173-10.3c-121.6,0-193.7,8.2-214.3,26.8c-18.5,16.5-325.5,109.2-681.9,210.1c-580.9,160.7-694.2,195.7-655.1,195.7C7132.1,4253.4,7521.5,4160.7,7989.1,4047.4z M4040,3773.4l224.5-212.2l-220.4-203.9c-121.5-113.3-228.7-210.1-241-212.2c-10.3-4.1-121.5,88.6-247.2,203.9l-230.7,214.2l224.5,210.1c123.6,115.4,234.8,210.1,245.1,212.2C3807.3,3985.6,3916.4,3890.9,4040,3773.4z M3562.1,3143.1c138-131.8,148.3-100.9-111.3-335.8l-160.7-144.2v366.7v366.7l78.3-70C3409.7,3287.3,3498.2,3204.9,3562.1,3143.1z M4299.6,3025.7v-362.6l-197.8,181.3L3902,3027.7l193.6,179.2c107.1,98.9,195.7,181.3,199.8,181.3C4297.5,3388.2,4299.6,3225.5,4299.6,3025.7z M1388.8,2965.9c98.9-974.4,438.8-4550.6,434.7-4565c-4.1-10.3-206,1063-451.1,2385.5C1127.2,2111,931.5,3200.8,935.6,3209c6.2,8.3,103,12.4,218.4,10.3l210.1-6.2L1388.8,2965.9z M9017,2584.8v-638.6h-267.8h-267.8v638.6v638.6h267.8H9017V2584.8z M4132.7,2617.8l131.8-125.7L4040,2282c-123.6-115.4-232.8-212.2-241-212.2c-10.3,0-119.5,94.8-245.1,212.2l-226.6,210.1l232.8,220.4l234.8,218.4l103-94.8C3953.5,2784.6,4060.6,2685.8,4132.7,2617.8z M3539.4,2100.7c80.3-74.2,140.1-142.1,133.9-152.4c-6.2-10.3-94.8-94.8-197.8-187.5l-185.4-168.9v364.6v362.6l53.6-41.2C3372.6,2255.2,3461.2,2174.9,3539.4,2100.7z M4299.6,1954.5V1594l-197.8,181.3l-195.7,181.3l191.6,179.2c105.1,98.9,193.6,181.3,197.8,181.3C4297.5,2317,4299.6,2154.3,4299.6,1954.5z M4103.9,1579.5l164.8-152.5l-226.6-214.2c-123.6-117.4-232.8-212.2-241-214.2c-6.2,0-115.4,94.8-243.1,212.2l-230.7,210.1l232.8,220.4l232.8,218.3l74.2-63.9C3906.1,1762.9,4013.3,1664,4103.9,1579.5z M3516.8,1052.2c84.5-76.2,156.6-148.3,160.7-156.6c2.1-8.2-82.4-94.8-191.6-193.6l-195.7-181.3v364.6C3290.2,1305.5,3263.4,1285,3516.8,1052.2z M4291.4,549.5c-6.2-4.1-94.8,68-197.8,162.7l-187.5,173l191.6,181.3l191.6,181.3l6.2-344C4297.5,714.3,4295.5,555.7,4291.4,549.5z M4091.5,522.7l177.2-164.8l-226.6-214.2C3918.5,26.3,3811.4-70.5,3805.2-72.6c-18.5,0-463.5,409.9-463.5,426.4c0,10.3,100.9,111.2,226.6,226.6l224.5,208.1l61.8-51.5C3889.7,708.1,3994.7,611.3,4091.5,522.7z M3508.5-6.7l183.3-171l-185.4-173c-100.9-94.8-191.6-173-199.8-175.1c-10.3,0-16.5,158.6-16.5,352.3c0,193.7,8.2,348.1,18.5,344C3317,168.4,3407.6,88.1,3508.5-6.7z M4295.5-354.8l-6.2-177.1l-185.4,171c-100.9,94.8-185.4,177.2-185.4,185.4c0,6.2,84.5,88.6,185.4,181.3l185.4,171l6.2-175.1C4297.5-97.3,4297.5-255.9,4295.5-354.8z M4083.3-536.1l185.4-175.1l-185.4-175.1c-100.9-96.8-210.1-193.7-239-214.3l-51.5-41.2l-226.6,206c-123.6,115.4-224.5,214.2-224.5,224.6c0,10.3,100.9,109.2,224.5,224.5l226.6,206l51.5-41.2C3873.2-342.5,3982.4-439.3,4083.3-536.1z M3506.5-1071.7l183.3-173l-171-160.7c-94.8-88.6-185.4-168.9-199.8-177.1c-24.7-14.4-28.8,45.3-28.8,335.8c0,191.6,6.2,350.2,16.5,350.2C3314.9-898.7,3403.5-976.9,3506.5-1071.7z M4295.5-1424l-6.2-179.2l-185.4,173c-100.9,94.8-185.4,179.2-185.4,185.4c0,8.2,84.5,90.6,185.4,185.4l185.4,173.1l6.2-181.3C4297.5-1166.5,4297.5-1327.1,4295.5-1424z M4062.7-1586.7l206-193.7l-177.2-164.8c-96.8-88.6-203.9-185.4-236.9-214.2l-61.8-51.5l-224.5,206c-125.7,115.4-226.6,216.3-226.6,226.6c0,8.2,100.9,109.2,224.5,222.5c177.2,162.7,230.7,199.8,257.5,185.4C3842.3-1382.8,3949.4-1477.5,4062.7-1586.7z M3681.6-2313.9c0-10.3-302.8-294.6-354.3-329.6c-35-26.8-37.1-12.4-37.1,335.8v364.6l195.7-181.3C3593-2223.2,3681.6-2307.7,3681.6-2313.9z M4299.6-2320.1v-352.3l-65.9,55.6c-37.1,30.9-125.6,113.3-197.7,181.3l-131.9,123.6l183.3,171c98.9,94.8,187.5,171,197.8,173C4293.4-1967.8,4299.6-2126.4,4299.6-2320.1z M4042.1-2635.2l226.6-214.2l-154.5-142.1c-84.5-78.3-191.6-177.2-236.9-216.3l-82.4-74.2L3564.2-3074c-125.6,115.4-230.7,216.3-230.7,222.5c-2.1,16.5,447,430.5,467.6,430.5C3809.3-2423.1,3916.4-2517.8,4042.1-2635.2z M3681.6-3378.9c0-10.3-247.2-243.1-323.4-309l-68-55.6v364.6v364.6l195.7-179.2C3593-3292.4,3681.6-3376.8,3681.6-3378.9z M4295.5-3551.9l-6.2-187.5l-191.6,179.2L3904.1-3383l193.6,179.2l191.6,179.2l6.2-171C4297.5-3290.3,4297.5-3451,4295.5-3551.9z"/><path d="M1106.6-3440.7v-195.7h875.5h875.5v195.7v195.7h-875.5h-875.5V-3440.7z"/><path d="M1106.6-3976.3V-4172h875.5h875.5v195.7v195.7h-875.5h-875.5V-3976.3z"/><path d="M624.5-4376c-14.4-20.6-156.6-393.4-156.6-405.8c0-4.1,1153.6-8.2,2564.7-8.2c1411.1,0,2564.7,6.2,2562.7,16.5c0,8.2-35,103-76.2,210.1l-78.3,195.7l-2402,6.2C1644.2-4359.5,630.7-4365.6,624.5-4376z"/></g></g>
</svg>